 <svg xmlns="http://www.w3.org/2000/svg" width="106" height="106" viewBox="0 0 106 106" fill="none">
                                <circle cx="53" cy="53" r="53" fill="#070501"></circle>
                                <path d="M54.7708 57.3125V71.2917H52.2291V57.3125H54.7708ZM25.5416 39.5208V33.1667C25.5416 32.1555 25.9433 31.1858 26.6583 30.4708C27.3733 29.7558 28.343 29.3542 29.3541 29.3542H77.6458C78.6569 29.3542 79.6267 29.7558 80.3416 30.4708C81.0566 31.1858 81.4583 32.1555 81.4583 33.1667V39.5208H25.5416ZM38.25 35.7083H42.0625V33.1667H38.25V35.7083ZM31.8958 35.7083H35.7083V33.1667H31.8958V35.7083ZM42.0625 49.6875V71.2917H44.6041V49.6875H42.0625ZM62.3958 63.6667V71.2917H64.9375V63.6667H62.3958ZM81.4583 42.0625V73.8333C81.4583 74.8445 81.0566 75.8142 80.3416 76.5292C79.6267 77.2441 78.6569 77.6458 77.6458 77.6458H29.3541C28.343 77.6458 27.3733 77.2441 26.6583 76.5292C25.9433 75.8142 25.5416 74.8445 25.5416 73.8333V42.0625H81.4583ZM59.8541 57.3125H62.3958V58.5833H64.9375V57.3125H66.2083C66.5453 57.3125 66.8686 57.1786 67.1069 56.9403C67.3452 56.7019 67.4791 56.3787 67.4791 56.0417V52.2292C67.4791 51.8921 67.3452 51.5689 67.1069 51.3305C66.8686 51.0922 66.5453 50.9583 66.2083 50.9583H62.3958V49.6875H67.4791V47.1458H64.9375V45.875H62.3958V47.1458H61.125C60.7879 47.1458 60.4647 47.2797 60.2263 47.518C59.988 47.7564 59.8541 48.0796 59.8541 48.4167V52.2292C59.8541 52.5662 59.988 52.8894 60.2263 53.1278C60.4647 53.3661 60.7879 53.5 61.125 53.5H64.9375V54.7708H59.8541V57.3125ZM70.0208 71.2917H67.4791V62.3958C67.4791 62.0588 67.3452 61.7355 67.1069 61.4972C66.8686 61.2589 66.5453 61.125 66.2083 61.125H61.125C60.7879 61.125 60.4647 61.2589 60.2263 61.4972C59.988 61.7355 59.8541 62.0588 59.8541 62.3958V71.2917H57.3125V56.0417C57.3125 55.7046 57.1786 55.3814 56.9402 55.143C56.7019 54.9047 56.3787 54.7708 56.0416 54.7708H50.9583C50.6212 54.7708 50.298 54.9047 50.0597 55.143C49.8214 55.3814 49.6875 55.7046 49.6875 56.0417V71.2917H47.1458V48.4167C47.1458 48.0796 47.0119 47.7564 46.7736 47.518C46.5352 47.2797 46.212 47.1458 45.875 47.1458H40.7916C40.4546 47.1458 40.1313 47.2797 39.893 47.518C39.6547 47.7564 39.5208 48.0796 39.5208 48.4167V71.2917H36.9791V73.8333H70.0208V71.2917Z" fill="white"></path>
                            </svg>