   <svg xmlns="http://www.w3.org/2000/svg" width="106" height="106" viewBox="0 0 106 106" fill="none">
                                <circle cx="53" cy="53" r="52.5" fill="#070501" stroke="black"></circle>
                                <g clip-path="url(#clip0_2006_73)">
                                    <path d="M37.3201 33.2775H57.3576C57.6376 33.2775 57.7689 33.1462 57.7864 33.0937V29.4362C57.7776 29.4012 57.6376 29.2525 57.3576 29.2525H52.5276C51.8626 29.2525 51.2239 28.9987 50.8039 28.5612C50.6308 28.3899 50.4943 28.1852 50.4026 27.9596C50.3109 27.7341 50.2658 27.4922 50.2701 27.2487C50.2789 27.0562 50.2439 26.8637 50.1826 26.6712C49.9114 25.8575 49.0189 25.21 47.9514 25.0438C46.8926 24.8775 45.8426 25.14 45.1426 25.7525C44.6701 26.155 44.4076 26.68 44.4076 27.2137C44.4076 27.73 44.2064 28.22 43.8301 28.5962C43.4014 29.025 42.8239 29.2525 42.1851 29.2525H37.3201C37.0401 29.2525 36.9089 29.4012 36.8914 29.4362V33.1025C36.9089 33.1375 37.0401 33.2775 37.3201 33.2775Z" fill="white"></path>
                                    <path d="M64.3663 32.175H59.5975V33.1025C59.5975 34.1962 58.5913 35.08 57.3663 35.08H37.3288C36.1038 35.08 35.0975 34.1962 35.0975 33.1025V32.175H30.3288C28.8675 32.175 27.6863 33.3562 27.6863 34.8175V78.34C27.6863 79.8012 28.8675 80.9912 30.3288 80.9912H64.3663C65.8275 80.9912 67.0175 79.8012 67.0175 78.34V34.8175C67.0175 33.3562 65.8275 32.175 64.3663 32.175ZM31.1513 40.2337C31.1513 39.735 31.545 39.3325 32.0525 39.3325H33.6888V37.6962C33.6888 37.1975 34.0913 36.795 34.59 36.795C35.0888 36.795 35.5 37.1975 35.5 37.6962V39.3325H37.1363C37.6438 39.3325 38.0375 39.735 38.0375 40.2337C38.0375 40.7325 37.6438 41.135 37.1363 41.135H35.5V42.7712C35.5 43.27 35.0975 43.6725 34.5988 43.6725C34.1 43.6725 33.6975 43.27 33.6975 42.7712V41.135H32.0613C31.5538 41.135 31.1513 40.7237 31.1513 40.2337ZM60.9013 75.4875H33.8025C33.295 75.4875 32.9013 75.085 32.9013 74.5862C32.9013 74.0875 33.295 73.685 33.8025 73.685H60.9013C61.4 73.685 61.8025 74.0875 61.8025 74.5862C61.8025 75.085 61.3913 75.4875 60.9013 75.4875ZM60.9013 66.51H33.8025C33.295 66.51 32.9013 66.1162 32.9013 65.6087C32.9013 65.11 33.295 64.7075 33.8025 64.7075H60.9013C61.4 64.7075 61.8025 65.11 61.8025 65.6087C61.8025 66.1162 61.3913 66.51 60.9013 66.51ZM60.9013 57.5412H33.8025C33.295 57.5412 32.9013 57.1387 32.9013 56.64C32.9013 56.1325 33.295 55.7387 33.8025 55.7387H60.9013C61.4 55.7387 61.8025 56.1325 61.8025 56.64C61.8025 57.1387 61.3913 57.5412 60.9013 57.5412ZM60.9013 48.5637H33.8025C33.295 48.5637 32.9013 48.1612 32.9013 47.6625C32.9013 47.1637 33.295 46.7612 33.8025 46.7612H60.9013C61.4 46.7612 61.8025 47.1637 61.8025 47.6625C61.8025 48.1612 61.3913 48.5637 60.9013 48.5637ZM77.045 45.1075C76.905 44.9675 76.7563 44.845 76.6075 44.7225L76.275 44.46V37.81C76.275 37.1975 76.03 36.6112 75.5925 36.165C75.1638 35.7362 74.5863 35.5 73.9563 35.5C72.6788 35.5 71.6375 36.5325 71.6375 37.81V44.4775L71.2963 44.74C70.22 45.5537 69.5988 46.8137 69.5988 48.1875V74.0175C69.5988 76.4237 71.5588 78.375 73.965 78.375C76.3625 78.3662 78.3225 76.415 78.3225 74.0175V48.1875C78.3225 47.0237 77.8675 45.93 77.045 45.1075Z" fill="white"></path>
                                </g>
                                <defs>
                                    <clipPath id="clip0_2006_73">
                                        <rect width="56" height="56" fill="white" transform="translate(25 25)"></rect>
                                    </clipPath>
                                </defs>
                            </svg>