<svg xmlns="http://www.w3.org/2000/svg" width="106" height="106" viewBox="0 0 106 106" fill="none">
                                <circle cx="53" cy="53" r="53" fill="#070501"></circle>
                                <path d="M85.5812 68.1529C85.5027 68.6894 85.3719 69.2129 85.1756 69.6186C84.8222 70.3383 84.482 70.4037 83.1472 70.3383C81.4199 70.2598 78.9467 70.3383 76.3295 70.443C76.3295 71.1627 76.3556 71.5029 76.3556 71.5029C76.5258 73.4789 77.4156 73.5443 77.7689 73.5443H83.3959C83.8931 73.5443 84.3511 73.5443 84.7045 73.3088C85.1625 73.0078 85.3588 72.1311 85.5289 70.6C85.5551 70.3775 85.5681 70.0896 85.5812 69.7494V69.7363C85.5812 69.6316 85.5943 69.5008 85.5943 69.3568V69.2129C85.5943 68.8596 85.5943 68.467 85.5812 68.1529Z" fill="white"></path>
                                <path d="M19.3926 68.1529C19.4711 68.6894 19.602 69.2129 19.7983 69.6186C20.1516 70.3383 20.4918 70.4037 21.8266 70.3383C23.5539 70.2598 26.0272 70.3383 28.6444 70.443C28.6444 71.1627 28.6182 71.5029 28.6182 71.5029C28.4481 73.4789 27.5582 73.5443 27.2049 73.5443H21.578C21.0807 73.5443 20.6619 73.5443 20.2694 73.3088C19.7983 73.034 19.6151 72.1311 19.4449 70.6C19.4188 70.3775 19.4057 70.0896 19.3926 69.7494V69.7363C19.3926 69.6316 19.3795 69.5008 19.3795 69.3568V69.2129C19.3926 68.8596 19.3926 68.467 19.3926 68.1529Z" fill="white"></path>
                                <path d="M86 55.8129C86 51.7955 85.4766 47.8697 85.2672 47.4379C85.1102 47.1238 84.1025 46.2994 81.8125 44.7422C79.4963 43.1588 79.5486 43.3944 79.1299 42.3606C79.5094 42.2428 79.8758 42.0203 80.0982 41.9942C80.5955 41.9418 80.6217 42.4129 81.6555 42.4129C82.6893 42.4129 84.9269 42.1381 85.385 41.6801C85.843 41.2221 85.9869 41.0651 85.9869 40.6594C85.9869 40.2537 85.7514 39.4162 85.3064 38.919C84.8615 38.4217 82.9641 38.1731 81.8518 38.0291C80.7395 37.8852 80.5824 38.0291 80.2945 38.2123C79.8365 38.5002 79.8104 41.1305 79.8104 41.1305L78.7242 41.1567C78.0176 39.4162 77.0361 35.9092 75.5051 33.1481C73.8301 30.1383 72.0766 29.1961 71.3438 28.9606C70.624 28.7381 69.9697 28.5811 65.0625 28.0838C60.0506 27.5604 56.0594 27.4949 52.5 27.4949C48.9406 27.4949 44.9494 27.5734 39.9375 28.0838C35.0303 28.5942 34.376 28.7381 33.6562 28.9606C32.9365 29.183 31.1699 30.1383 29.4949 33.1481C27.9639 35.9092 26.9824 39.4162 26.2758 41.1567L25.1896 41.1305C25.1896 41.1305 25.1766 38.5002 24.7055 38.2123C24.4176 38.0291 24.2605 37.8721 23.1482 38.0291C22.0359 38.1861 20.1385 38.4217 19.6936 38.919C19.2486 39.4162 19.0131 40.2537 19.0131 40.6594C19.0131 41.0651 19.157 41.2352 19.615 41.6801C20.073 42.1381 22.3107 42.4129 23.3445 42.4129C24.3783 42.4129 24.4045 41.9418 24.9018 41.9942C25.1242 42.0203 25.5037 42.2428 25.8701 42.3606C25.4383 43.3944 25.5037 43.1588 23.1875 44.7422C20.8975 46.3125 19.8768 47.1238 19.7328 47.4379C19.5234 47.8697 19 51.7955 19 55.8129C19 59.8303 19.2879 63.442 19.2879 64.7244C19.2879 65.261 19.2879 66.2031 19.4057 67.1061C19.4842 67.6426 19.602 68.166 19.8113 68.5717C20.1646 69.2914 20.4918 69.3569 21.8396 69.2914C23.567 69.2129 26.0664 69.2914 28.6443 69.3961C30.3717 69.4615 32.1383 69.527 33.7086 69.5662C37.6344 69.6447 36.4828 68.9904 38.1578 69.0166C39.8328 69.0428 46.4412 69.3176 52.4869 69.3176C58.5326 69.3176 65.1541 69.0428 66.816 69.0166C68.491 68.9904 67.3395 69.6447 71.2652 69.5662C72.8355 69.5401 74.6022 69.4615 76.3295 69.3961C78.9074 69.3045 81.4199 69.2129 83.1342 69.2914C84.482 69.3569 84.8092 69.2914 85.1625 68.5717C85.3588 68.166 85.4897 67.6426 85.5682 67.1061C85.699 66.2031 85.6859 65.261 85.6859 64.7244C85.7121 63.4551 86 59.8303 86 55.8129ZM30.2801 36.0008C30.9082 34.5352 32.7926 31.5908 33.7086 31.0674C33.9311 30.9365 35.8809 30.3215 40.7619 29.9943C45.2504 29.6934 50.21 29.5756 52.5131 29.5756C54.8162 29.5756 59.7758 29.6934 64.2643 29.9943C69.1322 30.3215 71.1082 30.9235 71.3176 31.0674C72.4953 31.8787 74.118 34.5352 74.7461 36.0008C75.3742 37.4664 76.2117 40.3453 76.0547 40.7379C75.8977 41.1305 76.2117 41.3268 74.0918 41.1567C71.985 40.9996 58.7551 40.8295 52.5262 40.8295C46.3104 40.8295 33.0805 40.9996 30.9605 41.1567C28.8406 41.3137 29.1547 41.1305 28.9977 40.7379C28.8145 40.3453 29.652 37.4795 30.2801 36.0008ZM35.0957 52.3844C34.1535 52.6199 33.5908 53.1303 32.4131 53.1172C31.2354 53.1172 28.0555 52.5807 27.375 52.5545C26.6945 52.5283 26.0926 53.0125 25.7393 53.1041C25.3859 53.1957 24.6924 52.9471 23.6455 52.6199C22.5986 52.2928 21.9836 52.3844 21.6434 50.958C21.29 49.5447 21.6434 47.5164 21.6434 47.5164C23.9072 47.4117 26.0926 47.6211 30.1885 48.7727C34.2844 49.9242 36.5613 52.1358 36.5613 52.1358C36.5613 52.1358 36.0379 52.1488 35.0957 52.3844ZM65.8738 62.6961C64.0025 62.9447 56.1641 63.0102 52.5 63.0102C48.8359 63.0102 40.9975 62.9317 39.1262 62.6961C37.2156 62.4475 34.7293 60.1574 36.4436 58.3385C38.7598 55.8652 38.3279 55.9438 43.5885 55.2633C48.1424 54.6744 51.5971 54.6483 52.5 54.6483C53.3898 54.6483 56.8576 54.6875 61.4115 55.2633C66.6721 55.9438 66.2402 55.8652 68.5564 58.3385C70.2707 60.1574 67.7844 62.4475 65.8738 62.6961ZM83.3566 50.9711C83.0033 52.3844 82.4014 52.3059 81.3545 52.633C80.3076 52.9602 79.6141 53.1957 79.2607 53.1172C78.9074 53.0387 78.3055 52.5545 77.625 52.5676C76.9445 52.5938 73.7646 53.1303 72.5869 53.1303C71.4092 53.1303 70.8465 52.633 69.9043 52.3975C68.9621 52.1619 68.4387 52.1619 68.4387 52.1619C68.4387 52.1619 70.7025 49.9373 74.8115 48.7988C78.9074 47.6473 81.0928 47.4379 83.3566 47.5426C83.3566 47.5164 83.71 49.5447 83.3566 50.9711Z" fill="white"></path>
                            </svg>