<svg xmlns="http://www.w3.org/2000/svg" width="106" height="106" viewBox="0 0 106 106" fill="none"><circle cx="53" cy="53" r="53" fill="#070501"></circle><path d="M67.1875 19.2812H30.6875C30.0825 19.2812 29.5022 19.5216 29.0744 19.9494C28.6466 20.3772 28.4062 20.9575 28.4062 21.5625V76.3125C28.4062 76.9175 28.6466 77.4978 29.0744 77.9256C29.5022 78.3534 30.0825 78.5938 30.6875 78.5938H37.5312V85.4375C37.5312 86.0425 37.7716 86.6228 38.1994 87.0506C38.6272 87.4784 39.2075 87.7188 39.8125 87.7188H76.3125C76.9175 87.7188 77.4978 87.4784 77.9256 87.0506C78.3534 86.6228 78.5938 86.0425 78.5938 85.4375V30.6875C78.5938 30.0825 78.3534 29.5022 77.9256 29.0744C77.4978 28.6466 76.9175 28.4062 76.3125 28.4062H69.4688V21.5625C69.4688 20.9575 69.2284 20.3772 68.8006 19.9494C68.3728 19.5216 67.7925 19.2812 67.1875 19.2812ZM32.9688 74.0312V23.8438H64.9062V28.4062H39.8125C39.2075 28.4062 38.6272 28.6466 38.1994 29.0744C37.7716 29.5022 37.5312 30.0825 37.5312 30.6875V74.0312H32.9688ZM74.0312 83.1562H42.0938V32.9688H74.0312V83.1562Z" fill="#E0AB20"></path><path d="M46.6562 53.5C47.2613 53.5 47.8415 53.2597 48.2693 52.8318C48.6972 52.404 48.9375 51.8238 48.9375 51.2188V48.9375H53.5V51.2188C53.5 51.8238 53.7403 52.404 54.1682 52.8318C54.596 53.2597 55.1762 53.5 55.7812 53.5C56.3863 53.5 56.9665 53.2597 57.3943 52.8318C57.8222 52.404 58.0625 51.8238 58.0625 51.2188V42.0938C58.0625 40.2787 57.3415 38.5379 56.058 37.2545C54.7746 35.971 53.0338 35.25 51.2188 35.25C49.4037 35.25 47.6629 35.971 46.3795 37.2545C45.096 38.5379 44.375 40.2787 44.375 42.0938V51.2188C44.375 51.8238 44.6153 52.404 45.0432 52.8318C45.471 53.2597 46.0512 53.5 46.6562 53.5ZM51.2188 39.8125C51.8238 39.8125 52.404 40.0528 52.8318 40.4807C53.2597 40.9085 53.5 41.4887 53.5 42.0938V44.375H48.9375V42.0938C48.9375 41.4887 49.1778 40.9085 49.6057 40.4807C50.0335 40.0528 50.6137 39.8125 51.2188 39.8125ZM63.7656 40.9531V43.2344H61.4844C60.8794 43.2344 60.2991 43.4747 59.8713 43.9025C59.4435 44.3304 59.2031 44.9106 59.2031 45.5156C59.2031 46.1207 59.4435 46.7009 59.8713 47.1287C60.2991 47.5565 60.8794 47.7969 61.4844 47.7969H63.7656V50.0781C63.7656 50.6832 64.006 51.2634 64.4338 51.6912C64.8616 52.119 65.4419 52.3594 66.0469 52.3594C66.6519 52.3594 67.2321 52.119 67.66 51.6912C68.0878 51.2634 68.3281 50.6832 68.3281 50.0781V47.7969H70.6094C71.2144 47.7969 71.7946 47.5565 72.2225 47.1287C72.6503 46.7009 72.8906 46.1207 72.8906 45.5156C72.8906 44.9106 72.6503 44.3304 72.2225 43.9025C71.7946 43.4747 71.2144 43.2344 70.6094 43.2344H68.3281V40.9531C68.3281 40.3481 68.0878 39.7679 67.66 39.34C67.2321 38.9122 66.6519 38.6719 66.0469 38.6719C65.4419 38.6719 64.8616 38.9122 64.4338 39.34C64.006 39.7679 63.7656 40.3481 63.7656 40.9531ZM70.6094 56.9219H46.6562C46.0512 56.9219 45.471 57.1622 45.0432 57.59C44.6153 58.0179 44.375 58.5981 44.375 59.2031C44.375 59.8081 44.6153 60.3884 45.0432 60.8162C45.471 61.244 46.0512 61.4844 46.6562 61.4844H70.6094C71.2144 61.4844 71.7946 61.244 72.2225 60.8162C72.6503 60.3884 72.8906 59.8081 72.8906 59.2031C72.8906 58.5981 72.6503 58.0179 72.2225 57.59C71.7946 57.1622 71.2144 56.9219 70.6094 56.9219ZM70.6094 63.7656H46.6562C46.0512 63.7656 45.471 64.006 45.0432 64.4338C44.6153 64.8616 44.375 65.4419 44.375 66.0469C44.375 66.6519 44.6153 67.2321 45.0432 67.66C45.471 68.0878 46.0512 68.3281 46.6562 68.3281H70.6094C71.2144 68.3281 71.7946 68.0878 72.2225 67.66C72.6503 67.2321 72.8906 66.6519 72.8906 66.0469C72.8906 65.4419 72.6503 64.8616 72.2225 64.4338C71.7946 64.006 71.2144 63.7656 70.6094 63.7656ZM66.0469 70.6094H46.6562C46.0512 70.6094 45.471 70.8497 45.0432 71.2775C44.6153 71.7054 44.375 72.2856 44.375 72.8906C44.375 73.4957 44.6153 74.0759 45.0432 74.5037C45.471 74.9315 46.0512 75.1719 46.6562 75.1719H66.0469C66.6519 75.1719 67.2321 74.9315 67.66 74.5037C68.0878 74.0759 68.3281 73.4957 68.3281 72.8906C68.3281 72.2856 68.0878 71.7054 67.66 71.2775C67.2321 70.8497 66.6519 70.6094 66.0469 70.6094Z" fill="#E0AB20"></path></svg>